<svg xmlns="http://www.w3.org/2000/svg" xml:space="preserve" id="hindu" x="0" y="0" version="1.1" viewBox="0 0 64 64">
  <path id="path5" d="M56.5 56V28.5h-21v-14H56a3.5 3.5 0 0 0 3.5-3.5V4A3.5 3.5 0 0 1 56 7.5H28.5v21h-14V8A3.5 3.5 0 0 0 11 4.5H4A3.5 3.5 0 0 1 7.5 8v27.5h21v14H8A3.5 3.5 0 0 0 4.5 53v7A3.5 3.5 0 0 1 8 56.5h27.5v-21h14V56a3.5 3.5 0 0 0 3.5 3.5h7a3.5 3.5 0 0 1-3.5-3.5z" style="fill:#ed491f"></path>
  <path id="rect7" d="M19 40h5v5h-5z" style="fill:#ed491f"></path>
  <path id="rect9" d="M40 19h5v5h-5z" style="fill:#ed491f"></path>
  <path id="rect11" d="M19 19h5v5h-5z" style="fill:#ed491f"></path>
  <path id="rect13" d="M40 40h5v5h-5z" style="fill:#ed491f"></path>
  <g id="g15" fill="#000" fill-opacity="1" fill-rule="nonzero" stroke="none" stroke-dasharray="none" stroke-dashoffset="0" stroke-linecap="butt" stroke-linejoin="miter" stroke-miterlimit="10" stroke-opacity="1" stroke-width="1" clip-rule="nonzero" color="#000" color-interpolation="sRGB" color-interpolation-filters="linearRGB" color-rendering="auto" direction="ltr" font-family="sans-serif" font-size="medium" font-stretch="normal" font-style="normal" font-variant="normal" font-weight="normal" image-rendering="auto" letter-spacing="normal" shape-rendering="auto" text-anchor="start" text-rendering="auto" visibility="visible" word-spacing="normal" writing-mode="lr-tb">
    <path id="rect17" d="M18.5 39.5v6h6v-6h-6zm1 1h4v4h-4v-4z" baseline-shift="baseline" display="inline" opacity="1" overflow="visible" style="line-height:normal;text-indent:0;text-align:start;text-decoration-line:none;text-decoration-style:solid;text-decoration-color:#000;text-transform:none;block-progression:tb;isolation:auto;mix-blend-mode:normal" text-decoration="none"></path>
    <path id="rect19" d="M39.5 18.5v6h6v-6h-6zm1 1h4v4h-4v-4z" baseline-shift="baseline" display="inline" opacity="1" overflow="visible" style="line-height:normal;text-indent:0;text-align:start;text-decoration-line:none;text-decoration-style:solid;text-decoration-color:#000;text-transform:none;block-progression:tb;isolation:auto;mix-blend-mode:normal" text-decoration="none"></path>
    <path id="rect21" d="M18.5 18.5v6h6v-6h-6zm1 1h4v4h-4v-4z" baseline-shift="baseline" display="inline" opacity="1" overflow="visible" style="line-height:normal;text-indent:0;text-align:start;text-decoration-line:none;text-decoration-style:solid;text-decoration-color:#000;text-transform:none;block-progression:tb;isolation:auto;mix-blend-mode:normal" text-decoration="none"></path>
    <path id="rect23" d="M39.5 39.5v6h6v-6h-6zm1 1h4v4h-4v-4z" baseline-shift="baseline" display="inline" opacity="1" overflow="visible" style="line-height:normal;text-indent:0;text-align:start;text-decoration-line:none;text-decoration-style:solid;text-decoration-color:#000;text-transform:none;block-progression:tb;isolation:auto;mix-blend-mode:normal" text-decoration="none"></path>
    <path id="path25" d="M4 4v1c1.663 0 3 1.337 3 3v28h21v13H8c-2.203 0-4 1.797-4 4v7h1c0-1.663 1.337-3 3-3h28V36h13v20c0 2.203 1.797 4 4 4h7v-1c-1.663 0-3-1.337-3-3V28H36V15h20c2.203 0 4-1.797 4-4V4h-1c0 1.663-1.337 3-3 3H28v21H15V8c0-2.203-1.797-4-4-4H4zm2.568 1H11c1.663 0 3 1.337 3 3v21h15V8h27c1.213 0 2.265-.574 3-1.432V11c0 1.663-1.337 3-3 3H35v15h21v27c0 1.213.574 2.265 1.432 3H53c-1.663 0-3-1.337-3-3V35H35v21H8c-1.213 0-2.265.574-3 1.432V53c0-1.663 1.337-3 3-3h21V35H8V8c0-1.213-.574-2.265-1.432-3z" baseline-shift="baseline" display="inline" opacity="1" overflow="visible" style="line-height:normal;text-indent:0;text-align:start;text-decoration-line:none;text-decoration-style:solid;text-decoration-color:#000;text-transform:none;block-progression:tb;isolation:auto;mix-blend-mode:normal" text-decoration="none"></path>
  </g>
</svg>
